<svg width="39" height="39" viewBox="0 0 39 39" fill="none" xmlns="http://www.w3.org/2000/svg">
<path d="M8.5 11.5C9.3295 11.5 10 10.8295 10 10C10 9.1705 9.3295 8.5 8.5 8.5C7.6705 8.5 7 9.1705 7 10C7 10.8295 7.6705 11.5 8.5 11.5Z" fill="url(#paint0_linear_15_3365)"/>
<path d="M13.75 11.5C14.5795 11.5 15.25 10.8295 15.25 10C15.25 9.1705 14.5795 8.5 13.75 8.5C12.9205 8.5 12.25 9.1705 12.25 10C12.25 10.8295 12.9205 11.5 13.75 11.5Z" fill="url(#paint1_linear_15_3365)"/>
<path d="M20.5 10C20.5 10.8295 19.8295 11.5 19 11.5C18.1705 11.5 17.5 10.8295 17.5 10C17.5 9.1705 18.1705 8.5 19 8.5C19.8295 8.5 20.5 9.1705 20.5 10Z" fill="url(#paint2_linear_15_3365)"/>
<path fill-rule="evenodd" clip-rule="evenodd" d="M22.6813 0H4.7503C2.54095 0 0.750298 1.79127 0.750298 4V16L0.755192 16.1996C0.859207 18.3156 2.6079 20 4.7503 20H6.75L6.7503 23.5L6.75601 23.6101C6.83524 24.3648 7.72103 24.772 8.3503 24.3L14.179 19.928L14.2498 19.899C14.5808 19.7372 14.8094 19.398 14.8113 19.0049L14.8187 17.4914C14.8237 16.3906 15.7186 15.5 16.8187 15.5H25.7293C26.2834 15.5 26.7318 15.0495 26.7293 14.4954L26.6813 3.98193C26.6713 1.78039 24.8822 0 22.6813 0ZM22.6813 2L22.83 2.00546C23.8609 2.0814 24.6765 2.94064 24.6813 3.99104L24.724 13.5H16.8187L16.6198 13.5049C14.511 13.6083 12.8284 15.3471 12.8187 17.482L12.814 18.452L8.75 21.5L8.7503 19C8.7503 18.4477 8.30258 18 7.7503 18H4.7503C3.64568 18 2.7503 17.1043 2.7503 16V4C2.7503 2.89569 3.64568 2 4.7503 2H22.6813Z" fill="url(#paint3_linear_15_3365)"/>
<path d="M20.5 25.75C21.3295 25.75 22 25.0795 22 24.25C22 23.4205 21.3295 22.75 20.5 22.75C19.6705 22.75 19 23.4205 19 24.25C19 25.0795 19.6705 25.75 20.5 25.75Z" fill="url(#paint4_linear_15_3365)"/>
<path d="M25.75 25.75C26.5795 25.75 27.25 25.0795 27.25 24.25C27.25 23.4205 26.5795 22.75 25.75 22.75C24.9205 22.75 24.25 23.4205 24.25 24.25C24.25 25.0795 24.9205 25.75 25.75 25.75Z" fill="url(#paint5_linear_15_3365)"/>
<path d="M32.5 24.25C32.5 25.0795 31.8295 25.75 31 25.75C30.1705 25.75 29.5 25.0795 29.5 24.25C29.5 23.4205 30.1705 22.75 31 22.75C31.8295 22.75 32.5 23.4205 32.5 24.25Z" fill="url(#paint6_linear_15_3365)"/>
<path fill-rule="evenodd" clip-rule="evenodd" d="M34.7497 13.5H16.8187C14.6177 13.5 12.8287 15.2804 12.8187 17.482L12.7632 29.4819L12.7672 29.6821C12.8624 31.8052 14.6153 33.5 16.7632 33.5H25.416L31.1497 37.8L31.2412 37.8615C31.8925 38.2509 32.7497 37.7866 32.7497 37L32.749 33.5H34.7497C36.959 33.5 38.7497 31.7087 38.7497 29.5V17.5C38.7497 15.2913 36.959 13.5 34.7497 13.5ZM16.8187 15.5H34.7497C35.8543 15.5 36.7497 16.3957 36.7497 17.5V29.5C36.7497 30.6043 35.8543 31.5 34.7497 31.5H31.7497L31.6331 31.5067C31.1357 31.5645 30.7497 31.9872 30.7497 32.5L30.749 35L26.3497 31.7C26.1766 31.5702 25.9661 31.5 25.7497 31.5H16.7632C15.6561 31.5 14.7582 30.5983 14.7632 29.491L14.8187 17.4914C14.8237 16.3906 15.7186 15.5 16.8187 15.5Z" fill="url(#paint7_linear_15_3365)"/>
<defs>
<linearGradient id="paint0_linear_15_3365" x1="46.9253" y1="19.4428" x2="-11.6859" y2="19.4428" gradientUnits="userSpaceOnUse">
<stop stop-color="#0E9BFC"/>
<stop offset="0.947917" stop-color="#FF00C7"/>
</linearGradient>
<linearGradient id="paint1_linear_15_3365" x1="46.9253" y1="19.4428" x2="-11.6859" y2="19.4428" gradientUnits="userSpaceOnUse">
<stop stop-color="#0E9BFC"/>
<stop offset="0.947917" stop-color="#FF00C7"/>
</linearGradient>
<linearGradient id="paint2_linear_15_3365" x1="46.9253" y1="19.4428" x2="-11.6859" y2="19.4428" gradientUnits="userSpaceOnUse">
<stop stop-color="#0E9BFC"/>
<stop offset="0.947917" stop-color="#FF00C7"/>
</linearGradient>
<linearGradient id="paint3_linear_15_3365" x1="46.9253" y1="19.4428" x2="-11.6859" y2="19.4428" gradientUnits="userSpaceOnUse">
<stop stop-color="#0E9BFC"/>
<stop offset="0.947917" stop-color="#FF00C7"/>
</linearGradient>
<linearGradient id="paint4_linear_15_3365" x1="46.9253" y1="19.4428" x2="-11.6859" y2="19.4428" gradientUnits="userSpaceOnUse">
<stop stop-color="#0E9BFC"/>
<stop offset="0.947917" stop-color="#FF00C7"/>
</linearGradient>
<linearGradient id="paint5_linear_15_3365" x1="46.9253" y1="19.4428" x2="-11.6859" y2="19.4428" gradientUnits="userSpaceOnUse">
<stop stop-color="#0E9BFC"/>
<stop offset="0.947917" stop-color="#FF00C7"/>
</linearGradient>
<linearGradient id="paint6_linear_15_3365" x1="46.9253" y1="19.4428" x2="-11.6859" y2="19.4428" gradientUnits="userSpaceOnUse">
<stop stop-color="#0E9BFC"/>
<stop offset="0.947917" stop-color="#FF00C7"/>
</linearGradient>
<linearGradient id="paint7_linear_15_3365" x1="46.9253" y1="19.4428" x2="-11.6859" y2="19.4428" gradientUnits="userSpaceOnUse">
<stop stop-color="#0E9BFC"/>
<stop offset="0.947917" stop-color="#FF00C7"/>
</linearGradient>
</defs>
</svg>
