<svg width="48" height="48" viewBox="0 0 48 48" fill="none" xmlns="http://www.w3.org/2000/svg">
<path fill-rule="evenodd" clip-rule="evenodd" d="M21.9676 5C15.8721 5 10.9297 9.94418 10.9297 16.0378C10.9297 22.1351 15.8703 27.0757 21.9676 27.0757C28.0612 27.0757 33.0054 22.1333 33.0054 16.0378C33.0054 9.94595 28.0595 5 21.9676 5ZM21.9676 7C26.9549 7 31.0054 11.0505 31.0054 16.0378C31.0054 21.0286 26.9568 25.0757 21.9676 25.0757C16.9749 25.0757 12.9297 21.0305 12.9297 16.0378C12.9297 11.0486 16.9768 7 21.9676 7ZM21.9676 27.5405C23.7489 27.5405 25.4795 27.8189 27.1054 28.34C26.6038 28.8568 26.1526 29.4228 25.7595 30.0299C24.5455 29.7098 23.2725 29.5405 21.9676 29.5405C14.9084 29.5405 8.97495 34.4722 7.98883 41.0139C7.9065 41.56 7.39706 41.936 6.85094 41.8537C6.30483 41.7714 5.92885 41.2619 6.01117 40.7158C7.14699 33.181 13.9332 27.5405 21.9676 27.5405Z" fill="#666F8C"/>
<path fill-rule="evenodd" clip-rule="evenodd" d="M35 26C29.4772 26 25 30.4772 25 36C25 41.5228 29.4772 46 35 46C40.5228 46 45 41.5228 45 36C45 30.4772 40.5228 26 35 26ZM35 28C39.4183 28 43 31.5817 43 36C43 40.4183 39.4183 44 35 44C30.5817 44 27 40.4183 27 36C27 31.5817 30.5817 28 35 28ZM34 38V37C34 36.2627 34.3827 35.7005 34.9775 35.2286C35.1564 35.0867 35.2102 35.0511 35.534 34.8458C35.8225 34.6629 36 34.3473 36 34C36 33.4477 35.5523 33 35 33C34.4477 33 34 33.4477 34 34H32C32 32.3431 33.3431 31 35 31C36.6569 31 38 32.3431 38 34C38 35.0396 37.4661 35.989 36.6048 36.535C36.3517 36.6954 36.3207 36.716 36.2205 36.7955C36.1039 36.888 36.0417 36.9565 36.0154 36.9854C36.0047 36.9972 36 37.0024 36 37V38H34ZM35.0003 40.9983C34.4479 40.9983 34 40.5506 34 39.9983C34 39.4461 34.4479 38.9983 35.0003 38.9983C35.5528 38.9983 36.0007 39.4461 36.0007 39.9983C36.0007 40.5506 35.5528 40.9983 35.0003 40.9983Z" fill="url(#paint0_linear_3_970)"/>
<defs>
<linearGradient id="paint0_linear_3_970" x1="49.303" y1="36.2326" x2="18.4545" y2="36.2326" gradientUnits="userSpaceOnUse">
<stop stop-color="#0E9BFC"/>
<stop offset="0.947917" stop-color="#FF00C7"/>
</linearGradient>
</defs>
</svg>
