<svg width="48" height="48" viewBox="0 0 48 48" fill="none" xmlns="http://www.w3.org/2000/svg">
<path fill-rule="evenodd" clip-rule="evenodd" d="M26.6972 12.8558C26.2032 12.6088 25.6026 12.809 25.3556 13.303L20.8556 22.303L20.8094 22.4103C20.6387 22.881 20.8441 23.4153 21.3028 23.6446C21.7968 23.8916 22.3974 23.6914 22.6444 23.1974L27.1444 14.1974L27.1906 14.0901C27.3613 13.6194 27.1559 13.0851 26.6972 12.8558ZM17.3179 13.7435C17.7085 13.353 18.3417 13.3532 18.7321 13.7438C19.0926 14.1043 19.1202 14.6715 18.8151 15.0638L18.7319 15.158L15.663 18.2242L18.732 21.2931C19.0925 21.6536 19.1202 22.2208 18.8152 22.6131L18.732 22.7073C18.3715 23.0678 17.8043 23.0955 17.412 22.7905L17.3178 22.7073L13.5423 18.9318C13.1818 18.5713 13.1541 18.004 13.4592 17.6117L13.5424 17.5175L17.3179 13.7435ZM29.2679 13.7438C29.6283 13.3832 30.1955 13.3554 30.5878 13.6603L30.6821 13.7435L34.4576 17.5175C34.8182 17.8779 34.846 18.4453 34.5409 18.8376L34.4577 18.9318L30.6822 22.7073C30.2917 23.0979 29.6585 23.0979 29.268 22.7073C28.9075 22.3468 28.8798 21.7796 29.1848 21.3873L29.268 21.2931L32.336 18.2242L29.2681 15.158C28.9076 14.7976 28.8797 14.2303 29.1847 13.838L29.2679 13.7438Z" fill="url(#paint0_linear_3_966)"/>
<path fill-rule="evenodd" clip-rule="evenodd" d="M41.9945 6.85074C41.9182 5.81588 41.0544 5 40 5H8L7.85074 5.00549C6.81588 5.08183 6 5.94564 6 7V29L6.00673 29.1166C6.02278 29.2548 6.06701 29.3844 6.13353 29.4996L1.152 37.47C1.05267 37.6289 1 37.8126 1 38V41C1 42.1046 1.89543 43 3 43H45C46.1046 43 47 42.1046 47 41V38C47 37.8126 46.9473 37.6289 46.848 37.47L41.8665 29.4996C41.9514 29.3526 42 29.182 42 29V7L41.9945 6.85074ZM40 29V7H8V29H40ZM40.446 31L45 38.286V41H3V38.284L7.553 31H40.446ZM42 37.5C42.5523 37.5 43 37.9477 43 38.5C43 39.0128 42.614 39.4355 42.1166 39.4933L42 39.5H6C5.44772 39.5 5 39.0523 5 38.5C5 37.9872 5.38604 37.5645 5.88338 37.5067L6 37.5H17.1319C17.1746 37.4273 17.228 37.3577 17.2929 37.2929L20.2929 34.2929C20.4804 34.1054 20.7348 34 21 34H27C27.2652 34 27.5196 34.1054 27.7071 34.2929L30.7071 37.2929C30.772 37.3577 30.8254 37.4273 30.8681 37.5H42ZM26.585 36L27.585 37H20.414L21.414 36H26.585Z" fill="#666F8C"/>
<defs>
<linearGradient id="paint0_linear_3_966" x1="39.3766" y1="18.3781" x2="6.21264" y2="18.3781" gradientUnits="userSpaceOnUse">
<stop stop-color="#0E9BFC"/>
<stop offset="0.947917" stop-color="#FF00C7"/>
</linearGradient>
</defs>
</svg>
