<svg width="48" height="48" viewBox="0 0 48 48" fill="none" xmlns="http://www.w3.org/2000/svg">
<path fill-rule="evenodd" clip-rule="evenodd" d="M30.5711 17.1528L30.4072 17.1581C29.161 17.2378 28.1473 18.2205 28.043 19.4819L27.907 21.1188L27.7218 21.2051C27.3455 21.39 26.9817 21.5981 26.6325 21.828L26.475 21.9358L25.0003 21.1989C23.8191 20.6096 22.3837 21.0228 21.6979 22.1493L20.0611 24.8407L19.9772 24.9899C19.4021 26.0966 19.7165 27.4717 20.7398 28.2131L22.158 29.2428L22.1385 29.4355C22.1157 29.6992 22.1041 29.958 22.1041 30.2158L22.1088 30.4984L22.1148 30.6408L22.144 31.0548L20.6798 32.0371C19.5816 32.7717 19.2318 34.2274 19.8758 35.3816L21.404 38.1245L21.4924 38.2713C22.1722 39.3187 23.5255 39.7227 24.6761 39.1947L26.365 38.4228L26.4654 38.4949C26.8799 38.7792 27.3181 39.0327 27.776 39.2539L27.895 39.3088L28.0458 41.1783C28.1522 42.4974 29.2517 43.5143 30.5741 43.5143H33.7151L33.8791 43.5091C35.1275 43.4291 36.1429 42.4424 36.2448 41.1787L36.393 39.3118L36.5071 39.2605C36.8487 39.095 37.1804 38.9103 37.5012 38.7072L37.613 38.6328L39.2911 39.4701C40.4715 40.0591 41.9054 39.6444 42.5912 38.5178L44.2292 35.8268L44.3132 35.6772C44.8885 34.5679 44.5735 33.1929 43.5484 32.4519L42.118 31.4148L42.1321 31.3107C42.174 30.9434 42.1956 30.5787 42.1956 30.2158L42.1901 29.9131L42.173 29.5898L43.6152 28.6201C44.7101 27.8819 45.0582 26.4288 44.4144 25.2773L42.8831 22.5357L42.795 22.3896C42.1179 21.3468 40.7684 20.9422 39.62 21.4631L38.118 22.1428L37.9757 22.037C37.5285 21.7186 37.0544 21.437 36.5582 21.1952L36.382 21.1138L36.2476 19.4819C36.1388 18.1657 35.0382 17.1528 33.7181 17.1528H30.5711ZM30.5711 19.1528H33.7181C33.9977 19.1528 34.2314 19.3678 34.2545 19.6468L34.439 21.8773C34.4705 22.2584 34.7166 22.5881 35.073 22.7268C35.9009 23.0489 36.665 23.5028 37.3335 24.0687C37.6285 24.3183 38.0408 24.3756 38.3927 24.216L40.4462 23.2845C40.6999 23.1694 41.0018 23.2687 41.1369 23.5107L42.6685 26.253C42.8045 26.4962 42.7307 26.8043 42.498 26.9612L40.5609 28.2641C40.2474 28.4749 40.0795 28.8445 40.127 29.2194C40.1723 29.5775 40.1955 29.9047 40.1955 30.2158C40.1955 30.6942 40.1477 31.1828 40.0547 31.6855C39.9846 32.0648 40.1389 32.4506 40.4512 32.677L42.3757 34.072C42.6032 34.2365 42.6659 34.5476 42.5199 34.7885L40.8829 37.4779C40.7371 37.7172 40.4336 37.805 40.184 37.6805L37.9775 36.5795C37.6402 36.4112 37.2369 36.4469 36.9344 36.6718C36.3622 37.0973 35.7398 37.4442 35.078 37.7049C34.7226 37.8449 34.4781 38.1751 34.4477 38.5558L34.2512 41.0188C34.2287 41.2982 33.9947 41.5143 33.7151 41.5143H30.5741C30.295 41.5143 30.062 41.2988 30.0393 41.0179L29.8413 38.5508C29.8108 38.1706 29.5666 37.8408 29.2117 37.7007C28.4441 37.3977 27.7382 36.9896 27.1173 36.4889C26.8225 36.2512 26.4187 36.2004 26.0742 36.3577L23.8437 37.3762C23.5882 37.4934 23.2871 37.3948 23.1508 37.1506L21.6226 34.4076C21.486 34.1627 21.56 33.8546 21.7925 33.699L23.7673 32.3755C24.087 32.1612 24.2554 31.7824 24.2002 31.4015C24.1362 30.9597 24.1041 30.5799 24.1041 30.2158C24.1041 29.8136 24.1413 29.3982 24.2145 28.9416C24.2741 28.5695 24.1195 28.1955 23.8146 27.9742L21.9141 26.5942C21.6874 26.4299 21.6249 26.1187 21.7702 25.8795L23.4065 23.1889C23.5514 22.9509 23.8561 22.8631 24.1066 22.9881L26.1248 23.9973C26.4709 24.1703 26.8858 24.1282 27.19 23.889C27.8036 23.4067 28.4868 23.0158 29.2194 22.7291C29.5749 22.59 29.8202 22.2606 29.8517 21.8802L30.0362 19.6467C30.0593 19.3672 30.2919 19.1528 30.5711 19.1528ZM32.232 25.2498C29.4524 25.2498 27.2 27.5034 27.2 30.2833C27.2 33.0631 29.4522 35.3153 32.232 35.3153C35.0107 35.3153 37.264 33.0627 37.264 30.2833C37.264 27.5038 35.0106 25.2498 32.232 25.2498ZM32.232 27.2498C33.9059 27.2498 35.264 28.6083 35.264 30.2833C35.264 31.958 33.9063 33.3153 32.232 33.3153C30.5568 33.3153 29.2 31.9585 29.2 30.2833C29.2 28.6077 30.5572 27.2498 32.232 27.2498Z" fill="#666F8C"/>
<path fill-rule="evenodd" clip-rule="evenodd" d="M12.6756 5.75049L12.5181 5.75622C11.4775 5.83219 10.6333 6.65505 10.5423 7.71001L10.454 8.78019L10.3495 8.83047C10.1268 8.94402 9.91021 9.06799 9.70054 9.20202L9.62 9.25519L8.66181 8.77656C7.66528 8.27829 6.45371 8.6275 5.87607 9.57991L4.66324 11.5738L4.58269 11.7188C4.11146 12.6492 4.37753 13.7956 5.23468 14.4178L6.166 15.0932C6.14938 15.2986 6.1406 15.4954 6.1406 15.692L6.14626 15.9646L6.159 16.1822L5.19963 16.8261C4.27321 17.4484 3.97786 18.6742 4.52188 19.6467L5.65325 21.6802L5.73984 21.822C6.31813 22.6919 7.45083 23.0244 8.41375 22.5831L9.532 22.0712L9.55643 22.089C9.73998 22.212 9.92914 22.3272 10.1233 22.4344L10.446 22.6012L10.5448 23.8383C10.6349 24.9514 11.5635 25.8075 12.6786 25.8075H15.0051L15.1629 25.8017C16.2058 25.7255 17.0503 24.8998 17.1386 23.8422L17.237 22.6032L17.2751 22.5854C17.4775 22.4843 17.6753 22.3745 17.868 22.2562L17.911 22.2272L19.0229 22.7819C20.0184 23.2797 21.23 22.9305 21.8076 21.9781L23.0192 19.9837L23.0999 19.8391C23.572 18.9111 23.3043 17.7641 22.4487 17.1411L21.508 16.4592L21.5167 16.391C21.5391 16.1571 21.5506 15.9243 21.5506 15.692L21.5465 15.4655L21.541 15.3612L22.4891 14.723C23.4114 14.1025 23.7049 12.8773 23.1624 11.9048L22.0264 9.87299L21.9406 9.73176C21.367 8.86513 20.2382 8.53215 19.2762 8.96895L18.3 9.41019L18.2415 9.36741C17.9452 9.16161 17.6336 8.97659 17.3092 8.81363L17.227 8.77419L17.1402 7.71369C17.0472 6.60362 16.1207 5.75049 15.0081 5.75049H12.6756ZM12.6756 7.75049H15.0081C15.0804 7.75049 15.141 7.80627 15.1471 7.87945L15.2835 9.53129C15.3149 9.91201 15.5605 10.2416 15.9164 10.3805C16.5066 10.611 17.0484 10.9325 17.5209 11.3326C17.8157 11.5823 18.228 11.6398 18.5799 11.4803L20.1024 10.7903C20.1684 10.7603 20.2455 10.7857 20.2798 10.8473L21.4163 12.88C21.4515 12.9432 21.4323 13.0235 21.3724 13.0638L19.9351 14.0315C19.6235 14.2413 19.4557 14.608 19.5008 14.981C19.5342 15.2572 19.5506 15.4812 19.5506 15.692C19.5506 16.03 19.5167 16.3751 19.4503 16.7342C19.3801 17.1135 19.5345 17.4994 19.8469 17.7258L21.2734 18.7593C21.3318 18.8018 21.3481 18.8827 21.3107 18.9441L20.098 20.9403C20.0601 21.0026 19.9817 21.0252 19.9163 20.9926L18.2818 20.1776C17.9452 20.0097 17.5428 20.045 17.2405 20.2688C16.8338 20.57 16.391 20.8161 15.9205 21.0018C15.5654 21.1419 15.3211 21.472 15.2908 21.8526L15.1453 23.6796C15.1393 23.751 15.0781 23.8075 15.0051 23.8075H12.6786C12.6053 23.8075 12.5442 23.7512 12.5383 23.6782L12.3929 21.8512C12.3627 21.4706 12.1184 21.1405 11.7633 21.0004C11.2224 20.7868 10.7204 20.4957 10.277 20.1389C9.98205 19.9016 9.57842 19.8511 9.23418 20.0086L7.58118 20.7646C7.51481 20.795 7.43518 20.769 7.39982 20.7058L6.26845 18.6723C6.23254 18.6081 6.25165 18.5288 6.31371 18.4871L7.77507 17.5084C8.09479 17.2942 8.26328 16.9156 8.20836 16.5348C8.16335 16.2226 8.1406 15.9496 8.1406 15.692C8.1406 15.4107 8.16675 15.1171 8.21867 14.784C8.27649 14.413 8.12163 14.0409 7.81769 13.8205L6.40919 12.799C6.35029 12.7562 6.33414 12.6755 6.37263 12.6121L7.58546 10.6182C7.62355 10.5554 7.70204 10.5327 7.76739 10.5654L9.26439 11.3139C9.6108 11.4871 10.0261 11.4447 10.3303 11.2051C10.7621 10.865 11.2456 10.5883 11.7684 10.3825C12.123 10.2429 12.3674 9.91392 12.3987 9.53414L12.5352 7.87814C12.5414 7.80714 12.6029 7.75049 12.6756 7.75049ZM13.8447 11.5145C11.5374 11.5145 9.6677 13.3843 9.6677 15.6915C9.6677 18 11.5371 19.87 13.8447 19.87C16.1535 19.87 18.0232 18.0003 18.0232 15.6915C18.0232 13.3839 16.1532 11.5145 13.8447 11.5145ZM13.8447 13.5145C15.0488 13.5145 16.0232 14.4887 16.0232 15.6915C16.0232 16.8958 15.0489 17.87 13.8447 17.87C12.6418 17.87 11.6677 16.8956 11.6677 15.6915C11.6677 14.4888 12.642 13.5145 13.8447 13.5145Z" fill="url(#paint0_linear_3_968)"/>
<defs>
<linearGradient id="paint0_linear_3_968" x1="27.5614" y1="16.0122" x2="-2.02855" y2="16.0122" gradientUnits="userSpaceOnUse">
<stop stop-color="#0E9BFC"/>
<stop offset="0.947917" stop-color="#FF00C7"/>
</linearGradient>
</defs>
</svg>
