<svg width="48" height="48" viewBox="0 0 48 48" fill="none" xmlns="http://www.w3.org/2000/svg">
<path fill-rule="evenodd" clip-rule="evenodd" d="M24 5C24.5128 5 24.9355 5.38604 24.9933 5.88338L25 6V12.316L25.0318 12.3013L25.082 12.265L25.173 12.1701C25.8071 11.5366 26.639 11.1301 27.5622 11.0254L27.7948 11.0055L28 11C30.2091 11 32 12.7909 32 15C32 17.2091 30.2091 19 28 19C26.925 19 25.9169 18.5724 25.1856 17.8436L25.0333 17.6828L25 17.653V23H27.8419C28.3942 23 28.8419 23.4477 28.8419 24C28.8419 24.5128 28.4559 24.9355 27.9585 24.9933L27.8419 25H25V27.8419V31C25 32.8337 22.7671 32.8869 21.5941 31.771L21.4904 31.6663C21.1126 31.2445 20.5772 31 20 31C18.8954 31 18 31.8954 18 33C18 34.0544 18.8159 34.9182 19.8256 34.9949L19.9711 35.0004L20.1184 34.9966C20.5913 34.9692 21.0305 34.7763 21.369 34.4581L21.5676 34.2563C22.6455 33.2871 24.8605 33.2578 24.9937 34.8463L25 35V38.56V41H39C40.0544 41 40.9182 40.1841 40.9945 39.1493L41 39V25H38.56C38.0471 25 37.6245 24.614 37.5667 24.1166L37.56 24C37.56 23.4872 37.946 23.0645 38.4433 23.0067L38.56 23H42C42.5128 23 42.9355 23.386 42.9933 23.8834L43 24V39C43 41.1422 41.316 42.8911 39.1996 42.9951L39 43H24H9C6.8578 43 5.10892 41.316 5.0049 39.1996L5 39V24V9C5 6.8578 6.68397 5.10892 8.80036 5.0049L9 5H24ZM23 41V38.56V35.683L22.9682 35.6987L22.917 35.734L22.827 35.8299C22.1929 36.4634 21.361 36.8699 20.4378 36.9746L20.2052 36.9945L20 37C17.7909 37 16 35.2091 16 33C16 30.7909 17.7909 29 20 29C21.075 29 22.0831 29.4276 22.8144 30.1564L22.9667 30.3172L23 30.347V27.8419V25H20.1581H17C15.1663 25 15.1131 22.7671 16.229 21.5941L16.3337 21.4904C16.7555 21.1126 17 20.5772 17 20C17 18.8954 16.1046 18 15 18C13.9456 18 13.0818 18.8159 13.0051 19.8256L12.9996 19.9711L13.0034 20.1184C13.0308 20.5913 13.2237 21.0305 13.5419 21.369L13.7437 21.5676C14.7129 22.6455 14.7422 24.8605 13.1537 24.9937L13 25H9.44004H7V39C7 40.0544 7.81588 40.9182 8.85074 40.9945L9 41H23ZM26.4059 16.229C25.2329 15.1131 23 15.1663 23 17V23H20.1581H17.652L17.6828 22.9667L17.8436 22.8144C18.5724 22.0831 19 21.075 19 20C19 17.7909 17.2091 16 15 16C12.7909 16 11 17.7909 11 20L11.0055 20.2052L11.0254 20.4378C11.1301 21.361 11.5366 22.1929 12.1701 22.827L12.265 22.917L12.3013 22.9682L12.316 23H9.44004H7V9L7.00549 8.85074C7.08183 7.81588 7.94564 7 9 7H23V13L23.0063 13.1537C23.1395 14.7422 25.3545 14.7129 26.4324 13.7437L26.631 13.5419C26.9695 13.2237 27.4087 13.0308 27.8816 13.0034L28.0289 12.9996L28.1744 13.0051C29.1841 13.0818 30 13.9456 30 15C30 16.1046 29.1046 17 28 17C27.4228 17 26.8874 16.7555 26.5096 16.3337L26.4059 16.229Z" fill="#666F8C"/>
<path fill-rule="evenodd" clip-rule="evenodd" d="M24 5H39C41.1422 5 42.8911 6.68397 42.9951 8.80036L43 9V24C43 24.5128 42.614 24.9355 42.1166 24.9933L42 25H35.683L35.6987 25.0318L35.734 25.082L35.8299 25.173C36.4634 25.8071 36.8699 26.639 36.9746 27.5622L36.9945 27.7948L37 28C37 30.2091 35.2091 32 33 32C30.7909 32 29 30.2091 29 28C29 26.925 29.4276 25.9169 30.1564 25.1856L30.3172 25.0333L30.346 25H24C23.4872 25 23.0645 24.614 23.0067 24.1166L23 24V20.1581V17C23 15.1663 25.2329 15.1131 26.4059 16.229L26.5096 16.3337C26.8874 16.7555 27.4228 17 28 17C29.1046 17 30 16.1046 30 15C30 13.9456 29.1841 13.0818 28.1744 13.0051L28.0289 12.9996L27.8816 13.0034C27.4087 13.0308 26.9695 13.2237 26.631 13.5419L26.4324 13.7437C25.3545 14.7129 23.1395 14.7422 23.0063 13.1537L23 13V9.44004V6C23 5.51675 23.3428 5.11356 23.7985 5.02032C23.8264 5.01461 23.8547 5.01006 23.8834 5.00673C23.9216 5.00228 23.9606 5 24 5ZM25 9.44004V12.316L25.0318 12.3013L25.082 12.265L25.173 12.1701C25.8071 11.5366 26.639 11.1301 27.5622 11.0254L27.7948 11.0055L28 11C30.2091 11 32 12.7909 32 15C32 17.2091 30.2091 19 28 19C26.925 19 25.9169 18.5724 25.1856 17.8436L25.0333 17.6828L25 17.653V20.1581V23H31C32.8337 23 32.8869 25.2329 31.771 26.4059L31.6663 26.5096C31.2445 26.8874 31 27.4228 31 28C31 29.1046 31.8954 30 33 30C34.0544 30 34.9182 29.1841 34.9949 28.1744L35.0004 28.0289L34.9966 27.8816C34.9692 27.4087 34.7763 26.9695 34.4581 26.631L34.2563 26.4324C33.2871 25.3545 33.2578 23.1395 34.8463 23.0063L35 23H41V9C41 7.94564 40.1841 7.08183 39.1493 7.00549L39 7H25V9.44004Z" fill="url(#paint0_linear_3_967)"/>
<defs>
<linearGradient id="paint0_linear_3_967" x1="47.303" y1="18.814" x2="16.4545" y2="18.814" gradientUnits="userSpaceOnUse">
<stop stop-color="#0E9BFC"/>
<stop offset="0.947917" stop-color="#FF00C7"/>
</linearGradient>
</defs>
</svg>
