<svg width="48" height="48" viewBox="0 0 48 48" fill="none" xmlns="http://www.w3.org/2000/svg">
<path fill-rule="evenodd" clip-rule="evenodd" d="M14.2497 5H29.2497C29.5149 5 29.7693 5.10536 29.9568 5.29289L38.9568 14.2929C39.1443 14.4804 39.2497 14.7348 39.2497 15V39C39.2497 41.2087 37.459 43 35.2497 43H14.2497C12.0414 43 10.2497 41.2083 10.2497 39V9C10.2497 6.79172 12.0414 5 14.2497 5ZM37.249 15.414L28.835 7H14.2497C13.146 7 12.2497 7.89628 12.2497 9V39C12.2497 40.1037 13.146 41 14.2497 41H35.2497C36.3543 41 37.2497 40.1043 37.2497 39L37.249 15.414Z" fill="#666F8C"/>
<path fill-rule="evenodd" clip-rule="evenodd" d="M20.9568 20.2929C20.5663 19.9024 19.9331 19.9024 19.5426 20.2929L17.249 22.585L16.4568 21.7929L16.3626 21.7097C15.9703 21.4047 15.4031 21.4324 15.0426 21.7929C14.6521 22.1834 14.6521 22.8166 15.0426 23.2071L16.5426 24.7071L16.6368 24.7903C17.0291 25.0953 17.5963 25.0676 17.9568 24.7071L20.9568 21.7071L21.04 21.6129C21.345 21.2206 21.3173 20.6534 20.9568 20.2929ZM33.7257 21.5C34.278 21.5 34.7257 21.9477 34.7257 22.5C34.7257 23.0128 34.3397 23.4355 33.8423 23.4933L33.7257 23.5H23.9997C23.4474 23.5 22.9997 23.0523 22.9997 22.5C22.9997 21.9872 23.3857 21.5645 23.8831 21.5067L23.9997 21.5H33.7257ZM20.9568 26.2929C20.5663 25.9024 19.9331 25.9024 19.5426 26.2929L17.249 28.585L16.4568 27.7929L16.3626 27.7097C15.9703 27.4047 15.4031 27.4324 15.0426 27.7929C14.6521 28.1834 14.6521 28.8166 15.0426 29.2071L16.5426 30.7071L16.6368 30.7903C17.0291 31.0953 17.5963 31.0676 17.9568 30.7071L20.9568 27.7071L21.04 27.6129C21.345 27.2206 21.3173 26.6534 20.9568 26.2929ZM34.7257 28.5C34.7257 27.9477 34.278 27.5 33.7257 27.5H23.9997L23.8831 27.5067C23.3857 27.5645 22.9997 27.9872 22.9997 28.5C22.9997 29.0523 23.4474 29.5 23.9997 29.5H33.7257L33.8423 29.4933C34.3397 29.4355 34.7257 29.0128 34.7257 28.5ZM34.7257 34.5C34.7257 33.9477 34.278 33.5 33.7257 33.5H23.9997L23.8831 33.5067C23.3857 33.5645 22.9997 33.9872 22.9997 34.5C22.9997 35.0523 23.4474 35.5 23.9997 35.5H33.7257L33.8423 35.4933C34.3397 35.4355 34.7257 35.0128 34.7257 34.5ZM19.5426 32.2929C19.9331 31.9024 20.5663 31.9024 20.9568 32.2929C21.3173 32.6534 21.345 33.2206 21.04 33.6129L20.9568 33.7071L17.9568 36.7071C17.5963 37.0676 17.0291 37.0953 16.6368 36.7903L16.5426 36.7071L15.0426 35.2071C14.6521 34.8166 14.6521 34.1834 15.0426 33.7929C15.4031 33.4324 15.9703 33.4047 16.3626 33.7097L16.4568 33.7929L17.249 34.585L19.5426 32.2929Z" fill="url(#paint0_linear_3_965)"/>
<path d="M29.2497 5C29.7625 5 30.1852 5.38604 30.243 5.88338L30.2497 6V12.747C30.2497 13.3964 30.7421 13.9294 31.3745 13.9935L31.5027 14H38.2497C38.802 14 39.2497 14.4477 39.2497 15C39.2497 15.5128 38.8637 15.9355 38.3663 15.9933L38.2497 16H31.5027C29.7674 16 28.3505 14.6429 28.2548 12.9317L28.2497 12.747V6C28.2497 5.44772 28.6974 5 29.2497 5Z" fill="#666F8C"/>
<defs>
<linearGradient id="paint0_linear_3_965" x1="39.0236" y1="28.6977" x2="8.2121" y2="28.6977" gradientUnits="userSpaceOnUse">
<stop stop-color="#0E9BFC"/>
<stop offset="0.947917" stop-color="#FF00C7"/>
</linearGradient>
</defs>
</svg>
